<svg data-v-423bf9ae="" xmlns="http://www.w3.org/2000/svg" viewBox="0 0 1207 90" class="iconLeft"><!----><!----><!----><g data-v-423bf9ae="" id="48dda36f-54ae-4a2f-8bba-db3387ab9d79" fill="#D1A103" transform="matrix(6.349206447601318,0,0,6.349206447601318,110.5094985961914,15.063493728637695)"><path d="M3.91 8.55C3.91 8.27 3.68 8.05 3.40 8.05L1.32 8.05L1.32 0.50C1.32 0.22 1.09 0 0.83 0L0.42 0C0.14 0-0.08 0.22-0.08 0.50L-0.08 8.93C-0.08 9.21 0.14 9.44 0.42 9.44L3.40 9.44C3.68 9.44 3.91 9.21 3.91 8.93ZM4.61 6.86C4.61 8.34 5.22 9.42 6.90 9.42C8.53 9.42 9.20 8.43 9.20 6.86L9.20 0.49C9.20 0.21 8.97-0.01 8.69-0.01L8.30-0.01C8.04-0.01 7.81 0.21 7.81 0.49L7.81 6.86C7.81 7.53 7.62 8.04 6.90 8.04C6.22 8.04 5.99 7.60 5.99 6.86L5.99 0.49C5.99 0.21 5.77-0.01 5.49-0.01L5.10-0.01C4.83-0.01 4.61 0.21 4.61 0.49ZM13.01 6.36L14.32 9.14C14.39 9.30 14.62 9.44 14.78 9.44L15.22 9.44C15.62 9.44 15.83 9.07 15.67 8.72L13.76 4.72L15.64 0.71C15.81 0.36 15.58 0 15.19 0L14.76 0C14.59 0 14.36 0.14 14.31 0.29C13.87 1.22 13.43 2.14 12.99 3.07L11.66 0.29C11.61 0.15 11.38 0 11.21 0L10.78 0C10.37 0 10.16 0.36 10.32 0.71L12.22 4.72L10.32 8.72C10.16 9.07 10.39 9.44 10.78 9.44L11.21 9.44C11.38 9.44 11.61 9.28 11.66 9.14ZM16.52 6.86C16.52 8.34 17.14 9.42 18.82 9.42C20.44 9.42 21.11 8.43 21.11 6.86L21.11 0.49C21.11 0.21 20.89-0.01 20.61-0.01L20.22-0.01C19.95-0.01 19.73 0.21 19.73 0.49L19.73 6.86C19.73 7.53 19.53 8.04 18.82 8.04C18.13 8.04 17.91 7.60 17.91 6.86L17.91 0.49C17.91 0.21 17.68-0.01 17.40-0.01L17.01-0.01C16.74-0.01 16.52 0.21 16.52 0.49ZM26.85 6.58C26.85 5.85 26.66 5.28 26.25 4.84C26.29 4.80 26.32 4.77 26.36 4.73C26.80 4.30 26.95 3.60 26.95 2.73C26.95 0.85 26.35-0.01 24.63-0.01L22.86-0.01C22.58-0.01 22.36 0.21 22.36 0.49L22.36 8.92C22.36 9.20 22.58 9.42 22.86 9.42L23.25 9.42C23.52 9.42 23.74 9.20 23.74 8.92L23.74 5.49L24.37 5.49C25.06 5.49 25.45 5.88 25.45 6.58L25.45 8.92C25.45 9.20 25.68 9.42 25.96 9.42L26.35 9.42C26.63 9.42 26.85 9.20 26.85 8.92ZM23.74 1.39L24.63 1.39C25.35 1.39 25.56 1.78 25.56 2.73C25.56 3.68 25.16 4.07 24.37 4.07L23.74 4.07ZM29.08 0.29C29.02 0.15 28.78 0 28.62 0L28.17 0C27.78 0 27.55 0.35 27.71 0.70C28.31 2.10 28.92 3.49 29.53 4.89L29.53 8.93C29.53 9.21 29.75 9.44 30.02 9.44L30.41 9.44C30.69 9.44 30.91 9.21 30.91 8.93L30.91 4.90L32.72 0.70C32.86 0.35 32.63 0 32.26 0L31.79 0C31.64 0 31.40 0.15 31.33 0.29L30.21 2.87ZM38.57 5.40C40.28 5.40 41.03 4.51 41.03 2.70C41.03 0.90 40.28 0 38.57 0L37.06 0C36.78 0 36.55 0.22 36.55 0.50L36.55 8.93C36.55 9.21 36.78 9.44 37.06 9.44L37.45 9.44C37.72 9.44 37.94 9.21 37.94 8.93L37.94 5.40ZM38.57 1.39C39.33 1.39 39.63 1.76 39.63 2.70C39.63 3.61 39.33 4.02 38.57 4.02L37.94 4.02L37.94 1.39ZM46.51 6.58C46.51 5.85 46.31 5.28 45.91 4.84C45.95 4.80 45.98 4.77 46.02 4.73C46.45 4.30 46.61 3.60 46.61 2.73C46.61 0.85 46.00-0.01 44.28-0.01L42.52-0.01C42.24-0.01 42.01 0.21 42.01 0.49L42.01 8.92C42.01 9.20 42.24 9.42 42.52 9.42L42.91 9.42C43.18 9.42 43.40 9.20 43.40 8.92L43.40 5.49L44.03 5.49C44.72 5.49 45.11 5.88 45.11 6.58L45.11 8.92C45.11 9.20 45.33 9.42 45.61 9.42L46.00 9.42C46.28 9.42 46.51 9.20 46.51 8.92ZM43.40 1.39L44.28 1.39C45.01 1.39 45.22 1.78 45.22 2.73C45.22 3.68 44.81 4.07 44.03 4.07L43.40 4.07ZM47.57 6.69C47.57 7.80 47.88 8.44 48.31 8.88C48.78 9.32 49.36 9.44 49.87 9.44C50.39 9.44 50.97 9.32 51.44 8.88C51.87 8.44 52.16 7.80 52.16 6.69L52.16 2.73C52.16 0.95 51.41 0 49.87 0C48.34 0 47.57 0.97 47.57 2.73ZM48.97 2.73C48.97 1.82 49.25 1.39 49.87 1.39C50.47 1.39 50.76 1.79 50.76 2.73L50.76 6.69C50.76 7.64 50.46 8.05 49.87 8.05C49.27 8.05 48.97 7.62 48.97 6.69ZM55.29 5.40C56.99 5.40 57.75 4.51 57.75 2.70C57.75 0.90 56.99 0 55.29 0L53.77 0C53.49 0 53.27 0.22 53.27 0.50L53.27 8.93C53.27 9.21 53.49 9.44 53.77 9.44L54.17 9.44C54.43 9.44 54.66 9.21 54.66 8.93L54.66 5.40ZM55.29 1.39C56.04 1.39 56.35 1.76 56.35 2.70C56.35 3.61 56.04 4.02 55.29 4.02L54.66 4.02L54.66 1.39ZM59.21 0C58.93 0 58.70 0.22 58.70 0.50L58.70 8.93C58.70 9.21 58.93 9.44 59.21 9.44L62.23 9.44C62.51 9.44 62.73 9.21 62.73 8.93L62.73 8.55C62.73 8.27 62.51 8.05 62.23 8.05L60.09 8.05L60.09 5.40L61.85 5.40C62.13 5.40 62.36 5.18 62.36 4.90L62.36 4.52C62.36 4.24 62.13 4.02 61.85 4.02L60.09 4.02L60.09 1.39L62.23 1.39C62.51 1.39 62.73 1.16 62.73 0.88L62.73 0.50C62.73 0.22 62.51 0 62.23 0ZM68.17 6.58C68.17 5.85 67.97 5.28 67.56 4.84C67.61 4.80 67.63 4.77 67.68 4.73C68.11 4.30 68.26 3.60 68.26 2.73C68.26 0.85 67.66-0.01 65.94-0.01L64.18-0.01C63.90-0.01 63.67 0.21 63.67 0.49L63.67 8.92C63.67 9.20 63.90 9.42 64.18 9.42L64.57 9.42C64.83 9.42 65.06 9.20 65.06 8.92L65.06 5.49L65.69 5.49C66.37 5.49 66.77 5.88 66.77 6.58L66.77 8.92C66.77 9.20 66.99 9.42 67.27 9.42L67.66 9.42C67.94 9.42 68.17 9.20 68.17 8.92ZM65.06 1.39L65.94 1.39C66.67 1.39 66.88 1.78 66.88 2.73C66.88 3.68 66.47 4.07 65.69 4.07L65.06 4.07ZM69.17 0.88C69.17 1.16 69.40 1.39 69.68 1.39L70.81 1.39L70.81 8.92C70.81 9.20 71.04 9.42 71.32 9.42L71.69 9.42C71.97 9.42 72.20 9.20 72.20 8.92L72.20 1.39L73.35 1.39C73.63 1.39 73.85 1.16 73.85 0.88L73.85 0.49C73.85 0.21 73.63-0.01 73.35-0.01L69.68-0.01C69.40-0.01 69.17 0.21 69.17 0.49ZM76.19 0.50C76.19 0.22 75.95 0 75.68 0L75.29 0C75.01 0 74.79 0.22 74.79 0.50L74.79 8.93C74.79 9.21 75.01 9.44 75.29 9.44L75.68 9.44C75.95 9.44 76.19 9.21 76.19 8.93ZM77.63 0C77.35 0 77.13 0.22 77.13 0.50L77.13 8.93C77.13 9.21 77.35 9.44 77.63 9.44L80.65 9.44C80.93 9.44 81.16 9.21 81.16 8.93L81.16 8.55C81.16 8.27 80.93 8.05 80.65 8.05L78.51 8.05L78.51 5.40L80.28 5.40C80.56 5.40 80.78 5.18 80.78 4.90L80.78 4.52C80.78 4.24 80.56 4.02 80.28 4.02L78.51 4.02L78.51 1.39L80.65 1.39C80.93 1.39 81.16 1.16 81.16 0.88L81.16 0.50C81.16 0.22 80.93 0 80.65 0ZM81.63 6.69C81.63 8.53 82.40 9.42 83.94 9.42C85.43 9.42 86.25 8.58 86.25 7.01C86.25 5.66 85.32 4.94 84.39 4.23L84.41 4.23C83.72 3.70 83.03 3.15 83.03 2.44C83.03 1.71 83.36 1.39 83.94 1.39C84.56 1.39 84.85 1.81 84.85 2.73L84.85 2.93C84.85 3.21 85.08 3.43 85.36 3.43L85.75 3.43C86.03 3.43 86.25 3.21 86.25 2.93L86.25 2.73C86.25 0.95 85.46-0.01 83.94-0.01C82.46-0.01 81.63 0.90 81.63 2.48C81.63 3.86 82.60 4.62 83.52 5.35L83.52 5.33C84.21 5.87 84.85 6.38 84.85 7.04C84.85 7.78 84.53 8.04 83.94 8.04C83.75 8.04 83.51 8.01 83.36 7.85C83.16 7.69 83.03 7.36 83.03 6.69L83.03 6.51C83.03 6.23 82.80 6.01 82.53 6.01L82.14 6.01C81.86 6.01 81.63 6.23 81.63 6.51ZM93.35 4.54C93.97 3.91 94.33 2.90 94.33 2.03C94.33 0.92 93.81 0 92.55 0C91.34 0 90.89 0.77 90.89 1.82C90.89 2.56 91.17 3.46 91.55 4.21C91.20 4.51 90.83 4.82 90.51 5.28C90.24 5.68 90.05 6.19 90.05 6.86C90.05 8.33 90.97 9.44 92.44 9.44C93.18 9.44 93.79 9.25 94.26 8.86L94.44 9.18C94.51 9.31 94.75 9.44 94.88 9.44L95.34 9.44C95.75 9.44 95.97 9.04 95.76 8.68L95.14 7.60C95.48 6.78 95.48 5.95 95.48 5.33L95.48 5.21C95.48 4.93 95.26 4.70 94.99 4.70L94.58 4.70C94.30 4.70 94.08 4.93 94.08 5.21L94.08 5.80ZM93.55 7.62C93.30 7.90 92.92 8.05 92.44 8.05C92.11 8.05 91.85 7.91 91.69 7.71C91.52 7.49 91.45 7.17 91.45 6.86C91.45 6.51 91.52 6.26 91.66 6.08C91.81 5.85 92.02 5.64 92.26 5.45ZM92.26 1.95C92.26 1.71 92.30 1.39 92.60 1.39C92.88 1.39 92.95 1.64 92.95 1.95C92.95 2.34 92.81 2.80 92.60 3.19C92.44 2.77 92.26 2.38 92.26 1.95ZM102.42 9.44C102.63 9.44 102.86 9.25 102.91 9.03L103.38 5.92L103.38 8.93C103.38 9.21 103.60 9.44 103.88 9.44L104.27 9.44C104.55 9.44 104.78 9.21 104.78 8.93L104.78 0.50C104.78 0.22 104.55 0 104.27 0L103.85 0C103.64 0 103.40 0.18 103.36 0.39L102.27 6.03L101.16 0.39C101.12 0.18 100.90 0 100.69 0L100.27 0C99.99 0 99.76 0.22 99.76 0.50L99.76 8.93C99.76 9.21 99.99 9.44 100.27 9.44L100.66 9.44C100.93 9.44 101.16 9.21 101.16 8.93L101.16 5.89L101.64 9.04C101.68 9.25 101.91 9.44 102.12 9.44ZM109.26 9.04C109.31 9.25 109.54 9.44 109.75 9.44L110.15 9.44C110.49 9.44 110.71 9.14 110.64 8.82L108.71 0.39C108.67 0.18 108.43 0 108.22 0L107.91 0C107.70 0 107.48 0.18 107.42 0.39L106.15 5.87L105.48 8.83C105.41 9.16 105.63 9.44 105.97 9.44L106.37 9.44C106.58 9.44 106.81 9.25 106.86 9.04L107.35 6.86L108.78 6.86ZM108.07 3.23C108.33 4.42 108.30 4.80 108.46 5.47L107.67 5.47ZM115.22 9.44C115.50 9.44 115.72 9.21 115.72 8.93L115.72 0.50C115.72 0.22 115.50 0 115.22 0L114.83 0C114.55 0 114.32 0.22 114.32 0.50L114.32 5.12L112.38 0.31C112.32 0.15 112.10 0 111.92 0L111.58 0C111.31 0 111.08 0.22 111.08 0.50L111.08 8.93C111.08 9.21 111.31 9.44 111.58 9.44L111.99 9.44C112.25 9.44 112.49 9.21 112.49 8.93L112.49 4.31L114.44 9.13C114.49 9.28 114.73 9.44 114.90 9.44ZM120.64 9.04C120.69 9.25 120.92 9.44 121.13 9.44L121.53 9.44C121.87 9.44 122.09 9.14 122.02 8.82L120.09 0.39C120.05 0.18 119.81 0 119.60 0L119.29 0C119.08 0 118.86 0.18 118.80 0.39L117.53 5.87L116.86 8.83C116.79 9.16 117.01 9.44 117.35 9.44L117.75 9.44C117.96 9.44 118.19 9.25 118.24 9.04L118.73 6.86L120.16 6.86ZM119.45 3.23C119.71 4.42 119.69 4.80 119.84 5.47L119.06 5.47ZM125.40 4.70C124.57 4.70 124.61 6.10 125.40 6.10L125.89 6.10L125.89 6.71C125.89 7.62 125.59 8.05 124.99 8.05C124.38 8.05 124.08 7.62 124.08 6.71C124.08 6.34 124.08 4.94 124.08 2.72C124.08 2.07 124.21 1.74 124.40 1.57C124.56 1.41 124.80 1.39 124.99 1.39C125.19 1.39 125.41 1.41 125.58 1.57C125.75 1.72 125.89 2.06 125.89 2.72L125.89 2.91C125.89 3.19 126.11 3.42 126.39 3.42L126.80 3.42C127.06 3.42 127.29 3.19 127.29 2.91L127.29 2.72C127.29 0.94 126.53 0 124.99 0C123.45 0 122.68 0.94 122.68 2.72L122.68 6.71C122.68 8.47 123.45 9.44 124.99 9.44C126.53 9.44 127.29 8.48 127.29 6.71L127.29 5.21C127.29 4.93 127.06 4.70 126.80 4.70L125.40 4.70ZM128.80 0C128.52 0 128.30 0.22 128.30 0.50L128.30 8.93C128.30 9.21 128.52 9.44 128.80 9.44L131.82 9.44C132.10 9.44 132.33 9.21 132.33 8.93L132.33 8.55C132.33 8.27 132.10 8.05 131.82 8.05L129.68 8.05L129.68 5.40L131.45 5.40C131.73 5.40 131.95 5.18 131.95 4.90L131.95 4.52C131.95 4.24 131.73 4.02 131.45 4.02L129.68 4.02L129.68 1.39L131.82 1.39C132.10 1.39 132.33 1.16 132.33 0.88L132.33 0.50C132.33 0.22 132.10 0 131.82 0ZM135.88 9.44C136.09 9.44 136.32 9.25 136.37 9.03L136.84 5.92L136.84 8.93C136.84 9.21 137.06 9.44 137.34 9.44L137.73 9.44C138.01 9.44 138.24 9.21 138.24 8.93L138.24 0.50C138.24 0.22 138.01 0 137.73 0L137.31 0C137.10 0 136.86 0.18 136.82 0.39L135.73 6.03L134.62 0.39C134.58 0.18 134.36 0 134.15 0L133.73 0C133.45 0 133.22 0.22 133.22 0.50L133.22 8.93C133.22 9.21 133.45 9.44 133.73 9.44L134.12 9.44C134.39 9.44 134.62 9.21 134.62 8.93L134.62 5.89L135.10 9.04C135.14 9.25 135.37 9.44 135.58 9.44ZM139.94 0C139.66 0 139.44 0.22 139.44 0.50L139.44 8.93C139.44 9.21 139.66 9.44 139.94 9.44L142.97 9.44C143.25 9.44 143.47 9.21 143.47 8.93L143.47 8.55C143.47 8.27 143.25 8.05 142.97 8.05L140.83 8.05L140.83 5.40L142.59 5.40C142.87 5.40 143.09 5.18 143.09 4.90L143.09 4.52C143.09 4.24 142.87 4.02 142.59 4.02L140.83 4.02L140.83 1.39L142.97 1.39C143.25 1.39 143.47 1.16 143.47 0.88L143.47 0.50C143.47 0.22 143.25 0 142.97 0ZM148.53 9.44C148.81 9.44 149.03 9.21 149.03 8.93L149.03 0.50C149.03 0.22 148.81 0 148.53 0L148.13 0C147.85 0 147.63 0.22 147.63 0.50L147.63 5.12L145.68 0.31C145.63 0.15 145.40 0 145.22 0L144.89 0C144.62 0 144.38 0.22 144.38 0.50L144.38 8.93C144.38 9.21 144.62 9.44 144.89 9.44L145.29 9.44C145.56 9.44 145.80 9.21 145.80 8.93L145.80 4.31L147.74 9.13C147.80 9.28 148.04 9.44 148.20 9.44ZM150.08 0.88C150.08 1.16 150.30 1.39 150.58 1.39L151.72 1.39L151.72 8.92C151.72 9.20 151.94 9.42 152.22 9.42L152.60 9.42C152.88 9.42 153.10 9.20 153.10 8.92L153.10 1.39L154.25 1.39C154.53 1.39 154.76 1.16 154.76 0.88L154.76 0.49C154.76 0.21 154.53-0.01 154.25-0.01L150.58-0.01C150.30-0.01 150.08 0.21 150.08 0.49ZM162.58 8.55C162.58 8.27 162.36 8.05 162.08 8.05L159.99 8.05L159.99 0.50C159.99 0.22 159.77 0 159.50 0L159.10 0C158.82 0 158.59 0.22 158.59 0.50L158.59 8.93C158.59 9.21 158.82 9.44 159.10 9.44L162.08 9.44C162.36 9.44 162.58 9.21 162.58 8.93ZM167.27 8.55C167.27 8.27 167.05 8.05 166.77 8.05L164.68 8.05L164.68 0.50C164.68 0.22 164.46 0 164.19 0L163.79 0C163.51 0 163.28 0.22 163.28 0.50L163.28 8.93C163.28 9.21 163.51 9.44 163.79 9.44L166.77 9.44C167.05 9.44 167.27 9.21 167.27 8.93ZM168.04 6.69C168.04 7.80 168.35 8.44 168.78 8.88C169.25 9.32 169.82 9.44 170.35 9.44C170.86 9.44 171.44 9.32 171.91 8.88C172.34 8.44 172.63 7.80 172.63 6.69L172.63 6.50C172.63 6.22 172.41 5.99 172.14 5.99L171.74 5.99C171.46 5.99 171.23 6.22 171.23 6.50L171.23 6.69C171.23 7.20 171.16 7.57 171.00 7.80C170.87 7.94 170.62 8.05 170.35 8.05C169.75 8.05 169.46 7.63 169.46 6.69L169.46 2.73C169.46 1.79 169.76 1.39 170.35 1.39C170.93 1.39 171.23 1.79 171.23 2.73L171.23 2.93C171.23 3.21 171.46 3.43 171.74 3.43L172.14 3.43C172.41 3.43 172.63 3.21 172.63 2.93L172.63 2.73C172.63 1.67 172.34 0.97 171.89 0.55C171.43 0.13 170.87 0 170.35 0C169.82 0 169.26 0.13 168.80 0.55C168.35 0.97 168.04 1.67 168.04 2.73Z"></path></g><!----><g data-v-423bf9ae="" id="ed66beac-4809-4628-8487-0c0c69196af5" transform="matrix(3.749866008758545,0,0,3.749866008758545,0.9999745488166809,1.0020618438720703)" stroke="none" fill="#D1A103"><path d="M10.845 4a.338.338 0 00-.045 0H4.4a.377.377 0 00-.4.4v3.2a.376.376 0 00.4.4h6.4a.377.377 0 00.4-.4V4.4a.38.38 0 00-.355-.4zM7.2 7.2H4.8V4.8h2.4v2.4zm3.2 0H8V4.8h2.4v2.4zM20 7.646a.338.338 0 000-.045V4.4a.377.377 0 00-.4-.4h-6.4a.377.377 0 00-.4.4v3.2a.377.377 0 00.4.4h6.4a.378.378 0 00.4-.354zM16 7.2h-2.4V4.8H16v2.4zm3.2 0h-2.4V4.8h2.4v2.4z"></path><path d="M23.321 14.4h-.85a6.177 6.177 0 00-.64-1.55l.59-.6a.681.681 0 00.005-.964l-.005-.006-.819-.819-.002-.002V2.4h.8a.378.378 0 00.4-.4V.4a.377.377 0 00-.4-.4H1.6a.378.378 0 00-.4.4V2a.377.377 0 00.399.4h.8v10.65H1.84a.39.39 0 00-.39.39v2.941L.141 17.43a.387.387 0 00-.053.545l.013.015 1.25 1.37c.02.01.04.01.05.02.045.04.101.068.16.08.029.008.06.012.09.01a.483.483 0 00.17-.05c.02-.01.04-.01.06-.02v4.22a.391.391 0 00.4.38h8.8a.383.383 0 00.39-.374V22.55a.7.7 0 00.78-.13l.6-.6a6.345 6.345 0 001.55.64v.85a.69.69 0 00.68.69h2.08a.69.69 0 00.68-.69v-.85a6.345 6.345 0 001.55-.64l.6.6a.687.687 0 00.97 0l1.46-1.46a.681.681 0 00.005-.964l-.005-.006-.59-.6a6.54 6.54 0 00.64-1.55h.85a.687.687 0 00.68-.68v-2.08a.687.687 0 00-.68-.68zM2 1.6V.8h20v.8H2zm15.161 6.64h-2.08a.69.69 0 00-.68.69v.84a6.54 6.54 0 00-1.55.64l-.6-.59a.7.7 0 00-.97 0l-.098.092A.369.369 0 0010.8 9.6H4.4a.377.377 0 00-.4.4v3.2a.123.123 0 00.01.06.367.367 0 00-.34-.21H3.2V2.4h17.6v7.313a.658.658 0 00-.809.107l-.6.59a6.441 6.441 0 00-1.55-.64v-.84a.69.69 0 00-.68-.69zM4.052 13.39c.06.137.201.222.35.21H4.9l-.001.001-.837.667v-.828a.08.08 0 00-.01-.05zm.748-.59v-2.4h2.4v2.2l1.24 1h1.609a6.69 6.69 0 000 .001c-.109.26-.199.527-.27.8h-.34l-1-.8-1.24-1-.29-.23a.352.352 0 00-.47 0L5.9 12.8H4.8zm5.6-2.1l-.581.581a.687.687 0 000 .97l.549.549H8v-2.4h2.4v.3zm-8.181 3.12h1.073v1.07l-.09.07-.8.65-.181.15v.78h-.002v-2.72zm-.538 4.75l-.74-.8.67-.54.789-.63.069-.06h.002l.731-.6.09-.07.77-.61v-.003L6.121 13.6l.55-.44.55.44 1.23.99a.688.688 0 00-.21.49v.74l-1.33-1.07a.385.385 0 00-.47 0L4.881 16l-.82.66v.27a.364.364 0 01-.06.2.378.378 0 01-.001 0 .364.364 0 00.06-.2v-.27l-.06.05-.75.6h.001l-.05.04-.8.64-.72.58zm5.931 4.66l-.001-.03H5.742v-3.3h1.87v3.33zm3.099 0h-2.33v-3.7a.406.406 0 00-.39-.4h-2.63a.309.309 0 00-.2.07.401.401 0 00-.19.33v3.7h-2.33v-4.46l.56-.45 1.6-1.28.3-.24 1-.8.57-.46.58.46.99.79v.37c0 .215.105.416.28.54.118.09.262.139.41.14h.85c.02.08.05.16.07.24.14.457.331.896.57 1.31l-.6.6a.687.687 0 000 .97l.89.89v1.38zm11.46-6.15a.373.373 0 00-.37.3 6.1 6.1 0 01-.77 1.87.367.367 0 00.05.47l.75.75-1.36 1.36-.75-.75a.392.392 0 00-.48-.06 5.503 5.503 0 01-1.86.77.4.4 0 00-.3.38v1.07h-1.92v-1.08a.394.394 0 00-.3-.37A5.508 5.508 0 0113 21.02a.39.39 0 00-.47.05l-.76.76-1.36-1.36.76-.76a.39.39 0 00.05-.47 5.503 5.503 0 01-.77-1.86.373.373 0 00-.37-.3H9v-1.92h1.07a.385.385 0 00.38-.3c.14-.662.401-1.292.77-1.86a.4.4 0 00-.06-.48l-.75-.75 1.36-1.36.75.75a.38.38 0 00.48.05 5.961 5.961 0 011.86-.77.386.386 0 00.3-.37V9h1.92v1.07a.386.386 0 00.3.37 5.645 5.645 0 011.87.77c.148.101.347.08.47-.05l.75-.75 1.36 1.36-.75.75a.377.377 0 00-.05.47c.367.572.628 1.205.77 1.87a.394.394 0 00.37.3h1.07l.001 1.92h-1.07z"></path><path d="M16.122 11.056a5.065 5.065 0 105.064 5.066v-.001a5.072 5.072 0 00-5.064-5.065zm4.029 6.53a4.294 4.294 0 01-2.548 2.549V18.66c.3-.161.576-.363.82-.6a3.259 3.259 0 000-4.6 3.33 3.33 0 00-1.05-.7.39.39 0 00-.35.03.385.385 0 00-.16.31v1.83l-.74.44-.74-.44V13.1a.373.373 0 00-.51-.34 3.19 3.19 0 00-1.05.7 3.253 3.253 0 000 4.6c.239.243.516.446.82.6v1.477c.243.09.494.157.75.2V18.42a.409.409 0 00-.24-.35 2.27 2.27 0 01-.8-.54 2.5 2.5 0 01-.005-3.536l.005-.004c.089-.095.186-.182.29-.26v1.41a.38.38 0 00.18.32l1.11.66a.349.349 0 00.38 0l1.11-.66a.38.38 0 00.18-.32v-1.4c.106.072.203.156.29.25a2.5 2.5 0 01.55 2.71c-.122.313-.31.596-.55.83-.228.231-.5.415-.8.54a.376.376 0 00-.24.35v1.921a3.912 3.912 0 01-1.463-.004 4.295 4.295 0 114.761-2.751z"></path></g><!----></svg>